<?xml version="1.0" standalone="no"?>
<!DOCTYPE svg PUBLIC "-//W3C//DTD SVG 20010904//EN"
 "http://www.w3.org/TR/2001/REC-SVG-20010904/DTD/svg10.dtd">
<svg version="1.0" xmlns="http://www.w3.org/2000/svg"
 width="700.000000pt" height="700.000000pt" viewBox="0 0 700.000000 700.000000"
 preserveAspectRatio="xMidYMid meet">
<metadata>
Created by potrace 1.14, written by Peter Selinger 2001-2017
</metadata>
<g transform="translate(0.000000,700.000000) scale(0.100000,-0.100000)"
fill="#000000" stroke="none">
<path d="M6219 6855 c-51 -75 -138 -200 -193 -278 -142 -204 -218 -314 -243
-351 -17 -27 -35 -37 -100 -56 -124 -36 -317 -108 -451 -167 -68 -30 -125 -53
-127 -51 -3 3 11 50 106 360 23 76 41 140 38 142 -4 4 -331 105 -365 113 -26
6 -19 21 -99 -237 -35 -113 -93 -302 -130 -420 -37 -118 -71 -228 -76 -245 -7
-21 -31 -45 -81 -80 -102 -71 -300 -231 -388 -313 l-75 -70 -5 257 -5 257
-197 -1 c-108 0 -200 -4 -204 -8 -5 -5 -9 -225 -9 -490 l0 -482 -71 -100 c-93
-131 -154 -226 -231 -360 -34 -60 -66 -116 -71 -124 -7 -12 -107 253 -164 437
-7 23 -17 42 -23 42 -5 0 -93 -29 -195 -64 -155 -53 -184 -66 -182 -81 5 -26
151 -447 162 -467 6 -10 10 -22 10 -28 0 -6 32 -101 71 -212 38 -111 68 -209
66 -218 -3 -8 -21 -67 -41 -132 -54 -175 -83 -299 -120 -518 -31 -179 -39
-247 -51 -445 -15 -236 -11 -392 10 -388 6 0 95 4 199 7 104 3 190 7 191 9 2
1 5 101 8 222 3 121 8 229 10 240 3 11 8 52 11 90 4 39 8 81 10 95 3 14 10 59
16 100 7 41 25 134 42 205 16 72 31 137 33 146 2 9 17 61 34 116 36 116 -3 91
296 193 506 173 621 213 629 221 5 4 2 27 -7 51 -17 47 -106 306 -112 325 -5
15 -5 15 -323 -96 l-234 -81 47 88 c57 105 149 252 228 364 l59 83 474 0 c311
0 475 3 477 10 3 9 1 379 -2 397 0 4 -101 7 -223 7 -123 0 -254 0 -293 0 l-70
2 65 61 c124 116 358 305 415 336 22 11 24 11 660 -187 142 -44 262 -77 266
-73 4 4 14 30 22 57 9 28 35 110 57 183 23 74 38 137 34 142 -5 4 -63 25 -129
45 -66 20 -185 57 -265 83 l-144 45 67 33 c94 46 272 116 405 159 l112 37 63
-43 c35 -24 183 -127 331 -229 147 -102 295 -205 328 -228 71 -51 57 -59 159
88 40 58 88 127 107 154 34 49 35 50 14 65 -11 9 -115 81 -231 161 -204 141
-209 145 -178 152 29 6 174 19 299 27 17 1 17 51 4 351 l-2 55 -59 0 c-32 0
-90 -3 -129 -6 -39 -4 -102 -10 -140 -14 l-69 -7 25 34 c14 18 50 69 80 113
30 44 89 130 131 191 l76 111 -157 108 c-86 59 -164 110 -173 112 -10 3 -44
-37 -110 -132z"/>
<path d="M1335 6884 c-88 -13 -172 -25 -187 -26 -25 -2 -27 -5 -22 -43 3 -22
9 -62 14 -90 5 -27 12 -72 15 -100 3 -27 13 -95 21 -150 8 -55 17 -113 19
-130 2 -16 18 -127 35 -245 32 -223 32 -232 -6 -280 -32 -40 -172 -320 -235
-469 l-43 -104 -51 105 c-27 57 -79 163 -113 236 -35 73 -68 132 -73 132 -6 0
-90 -39 -189 -86 -150 -73 -177 -89 -169 -103 10 -18 181 -373 244 -506 23
-49 72 -151 108 -225 l65 -135 -23 -115 c-20 -103 -28 -150 -41 -255 -2 -16
-6 -43 -9 -60 -2 -16 -8 -66 -11 -110 -4 -44 -8 -87 -10 -95 -1 -8 -3 -24 -3
-35 -1 -22 4 -27 -196 189 -55 59 -113 121 -128 138 l-29 30 -26 -25 c-15 -13
-52 -47 -82 -75 -30 -28 -86 -80 -125 -116 l-70 -65 45 -48 c25 -26 52 -54 60
-63 8 -8 67 -71 130 -140 63 -68 122 -131 130 -140 67 -71 245 -263 274 -295
23 -26 36 -51 37 -70 0 -16 2 -39 3 -50 2 -11 6 -43 9 -72 14 -109 72 -402
103 -510 3 -13 3 -23 0 -23 -4 0 -39 17 -79 39 -40 21 -141 75 -225 120 -85
46 -155 81 -156 79 -11 -15 -54 -94 -111 -203 -37 -71 -72 -135 -77 -142 -5
-6 -5 -13 -1 -16 24 -14 161 -88 378 -202 61 -32 189 -101 285 -152 96 -51
178 -93 182 -93 4 0 44 -73 89 -162 192 -385 423 -719 699 -1011 l84 -88 143
143 c79 78 143 145 143 148 0 3 -27 35 -61 70 -253 270 -454 557 -623 889
l-68 134 32 61 c17 34 59 113 92 176 33 63 75 142 93 175 138 256 225 422 225
432 0 5 -37 27 -82 51 -46 23 -125 65 -177 92 -52 28 -97 47 -101 43 -4 -4
-34 -57 -66 -118 -32 -60 -82 -155 -111 -210 -29 -55 -61 -115 -70 -132 -21
-39 -29 -41 -36 -10 -2 12 -19 83 -36 157 -16 74 -33 153 -36 175 -4 22 -8 51
-10 65 -3 14 -10 61 -16 105 l-11 80 80 75 c44 41 133 124 198 185 112 103
168 156 305 283 31 29 70 65 87 80 l30 27 -62 67 c-238 258 -218 239 -236 220
-9 -9 -59 -55 -110 -102 -51 -47 -111 -102 -134 -123 -196 -184 -177 -173
-171 -91 3 38 8 92 11 119 3 28 7 73 10 100 6 60 43 284 53 322 8 32 -8 22
231 137 107 51 284 136 392 189 109 53 207 98 218 102 11 3 20 11 20 16 0 9
-166 358 -174 366 -2 2 -114 -51 -250 -117 -136 -66 -252 -120 -258 -120 -11
0 -12 -1 38 118 46 106 189 389 213 419 12 14 34 24 62 28 24 3 51 8 59 10 8
2 42 7 75 10 32 4 62 8 65 10 3 2 34 6 70 10 36 4 67 8 70 10 3 1 30 6 61 9
31 4 65 8 75 10 11 2 42 7 69 10 59 8 99 14 180 26 33 5 82 12 109 15 62 8 65
10 61 38 -2 12 -6 45 -10 72 -3 28 -8 57 -10 65 -2 8 -7 38 -10 65 -3 28 -8
65 -12 84 -3 19 -7 44 -8 55 -1 12 -3 25 -4 30 -1 8 -34 6 -151 -13 -61 -9
-97 -14 -195 -27 -22 -3 -47 -7 -55 -9 -8 -2 -40 -7 -70 -10 -30 -3 -64 -9
-74 -12 -16 -4 -14 2 12 35 38 48 148 168 180 196 12 11 22 24 22 28 0 11
-274 288 -285 288 -11 0 -145 -142 -231 -243 -34 -40 -40 -44 -41 -24 0 6 -3
30 -6 52 -4 22 -13 90 -22 150 -9 61 -18 121 -20 135 -2 14 -7 50 -11 80 -4
30 -9 58 -10 63 -1 4 -2 14 -3 22 -1 19 -1 19 -196 -11z"/>
<path d="M5484 4234 c-33 -25 -66 -50 -74 -57 -8 -7 -54 -43 -103 -80 -48 -37
-87 -70 -87 -72 0 -3 225 -296 471 -612 l110 -142 -26 -100 c-29 -116 -89
-299 -138 -419 l-34 -83 -98 268 c-54 147 -99 269 -100 271 -3 4 -368 -129
-378 -138 -6 -5 87 -269 281 -792 l39 -107 -70 -103 c-110 -164 -305 -414
-314 -404 -4 4 -9 81 -19 276 -3 80 -8 163 -9 185 -2 22 -3 59 -4 82 l-1 42
-92 -5 c-51 -3 -115 -7 -143 -9 -27 -2 -79 -4 -114 -4 l-63 -1 7 -157 c3 -87
8 -185 11 -218 4 -56 6 -98 19 -370 3 -60 8 -130 10 -155 3 -25 1 -50 -3 -56
-27 -40 -474 -354 -504 -354 -7 0 13 75 95 355 31 105 53 193 49 196 -4 4 -72
25 -152 49 -80 23 -164 48 -188 55 -42 14 -43 14 -52 -10 -15 -40 -242 -827
-248 -859 -4 -23 -15 -33 -56 -51 -52 -23 -308 -105 -373 -120 -10 -2 -56 -14
-103 -25 -91 -23 -284 -57 -365 -66 -27 -3 -61 -7 -75 -10 -14 -2 -70 -7 -125
-10 -55 -4 -118 -8 -140 -9 -22 -2 -49 -4 -60 -4 -20 -1 -21 -6 -19 -133 1
-73 3 -166 3 -206 l1 -73 137 6 c76 3 145 8 153 10 8 2 50 7 93 10 43 4 88 8
100 11 12 2 41 7 63 10 23 2 53 7 65 9 26 6 56 11 109 20 178 31 564 142 727
210 39 16 22 20 323 -69 47 -14 110 -32 140 -40 30 -8 78 -22 105 -30 291 -84
408 -117 410 -114 10 10 112 384 107 390 -4 3 -104 34 -222 68 -118 35 -231
67 -250 73 -22 6 -29 12 -20 15 15 5 288 181 313 202 6 5 46 35 87 67 41 31
77 59 80 62 3 3 24 21 48 39 47 37 42 36 277 47 72 3 162 8 200 10 39 2 126 7
195 11 69 3 145 8 170 9 25 2 76 3 113 4 l68 1 -7 148 c-4 81 -8 158 -9 172
-1 14 -3 42 -4 62 -1 37 -2 38 -33 33 -18 -2 -85 -7 -148 -10 -63 -2 -163 -7
-222 -10 -60 -3 -108 -3 -108 0 0 3 24 34 53 68 75 89 182 234 274 372 l81
120 133 48 c74 26 151 55 172 62 89 35 124 48 352 131 132 48 244 90 249 95 6
5 -110 346 -130 380 -2 4 -113 -33 -246 -82 -132 -49 -245 -89 -249 -89 -4 0
3 24 15 53 47 104 155 441 172 534 2 12 8 33 14 47 5 13 7 26 5 28 -2 2 169
136 380 298 211 162 386 300 389 306 4 11 -225 316 -242 322 -5 1 -36 -19 -69
-45 -156 -123 -352 -273 -357 -273 -3 0 -3 24 -1 53 4 49 9 297 6 325 -1 11
-41 12 -201 9 -110 -2 -202 -5 -204 -8 -2 -2 -6 -69 -7 -149 -4 -219 2 -215
-109 -71 -52 68 -129 167 -171 221 l-77 99 -58 -45z"/>
</g>
</svg>
