<?xml version="1.0" standalone="no"?>
<!DOCTYPE svg PUBLIC "-//W3C//DTD SVG 20010904//EN"
 "http://www.w3.org/TR/2001/REC-SVG-20010904/DTD/svg10.dtd">
<svg version="1.0" xmlns="http://www.w3.org/2000/svg"
 width="460.000000pt" height="460.000000pt" viewBox="0 0 460.000000 460.000000"
 preserveAspectRatio="xMidYMid meet">
<metadata>
Created by potrace 1.14, written by Peter Selinger 2001-2017
</metadata>
<g transform="translate(0.000000,460.000000) scale(0.100000,-0.100000)"
fill="#000000" stroke="none">
<path d="M2100 4359 c-224 -19 -385 -60 -530 -135 -190 -97 -311 -244 -396
-478 -21 -56 -35 -81 -51 -87 -29 -11 -37 -29 -59 -124 -13 -57 -19 -121 -19
-222 0 -132 1 -143 23 -173 20 -26 22 -36 13 -63 -19 -59 -51 -221 -58 -290
-4 -43 -11 -71 -19 -74 -27 -10 -89 -222 -118 -405 -33 -207 -16 -357 61 -518
37 -77 59 -108 117 -165 82 -80 197 -149 328 -196 l86 -31 -18 -64 c-10 -35
-21 -68 -25 -74 -3 -5 -2 -10 3 -10 5 0 7 -13 4 -30 -2 -18 -10 -30 -19 -30
-17 0 -13 -22 5 -28 7 -2 15 10 18 27 5 25 10 30 25 26 11 -4 19 -2 19 4 0 6
9 11 19 11 17 0 18 -3 8 -25 -7 -14 -20 -25 -30 -25 -26 0 -16 -24 11 -28 12
-2 22 -9 22 -15 0 -7 4 -6 10 3 5 8 5 17 1 20 -12 7 6 50 20 50 7 0 9 -10 5
-27 -3 -16 -10 -59 -16 -98 -6 -38 -15 -94 -21 -124 -13 -78 -11 -398 4 -441
8 -23 25 -41 52 -57 41 -23 169 -61 218 -65 19 -2 26 -7 23 -18 -29 -98 -28
-137 1 -126 60 23 138 17 171 -14 21 -20 21 -20 36 2 9 12 16 43 16 68 l0 45
255 0 255 0 0 -51 c0 -27 6 -59 14 -69 13 -18 14 -18 36 3 28 26 101 38 146
24 47 -14 58 7 38 73 -8 27 -13 50 -11 51 2 2 47 15 101 29 110 29 170 56 181
82 8 17 24 251 27 383 1 36 -4 109 -12 163 -11 84 -11 100 1 108 19 12 32 11
24 -1 -8 -13 6 -13 25 0 13 9 13 11 0 20 -13 9 -13 11 0 19 8 6 11 13 7 18 -5
4 -11 3 -15 -2 -4 -6 -17 -15 -28 -22 -18 -10 -25 -9 -40 8 -16 18 -16 19 4
19 11 0 24 5 27 10 3 6 21 10 40 10 37 0 49 -17 39 -56 -6 -23 -5 -24 20 -13
18 9 23 16 16 23 -5 5 -10 20 -10 33 0 13 -5 23 -11 23 -5 0 -7 5 -4 10 4 6 2
16 -3 23 -14 19 -34 109 -25 117 4 5 42 22 84 39 201 83 375 231 447 381 47
97 72 214 72 329 0 87 -10 112 -34 91 -9 -7 -19 -10 -23 -6 -4 3 3 13 15 22
40 28 27 98 -22 120 l-31 13 33 1 c17 0 32 2 32 5 0 12 -41 156 -64 225 -14
41 -32 130 -41 197 -9 68 -27 164 -39 215 -22 88 -22 93 -6 122 13 25 17 62
19 186 3 192 -18 302 -58 315 -12 3 -30 43 -55 120 -78 236 -198 378 -401 475
-217 104 -599 151 -965 119z m688 -1114 c183 -20 344 -47 504 -86 l126 -30
-24 -52 c-23 -49 -31 -87 -18 -87 3 0 14 5 26 11 18 10 19 8 14 -18 -14 -61
-23 -133 -17 -134 3 -1 13 -1 22 0 13 1 17 -12 22 -59 4 -33 18 -95 32 -137
14 -41 24 -77 23 -78 -2 -2 -30 1 -63 6 -32 4 -154 11 -270 14 -267 9 -382 -5
-624 -75 -217 -62 -258 -64 -409 -15 -248 80 -415 101 -712 91 -107 -3 -215
-10 -240 -15 -25 -5 -46 -8 -48 -6 -1 1 8 36 22 76 13 41 27 103 31 137 6 58
9 63 27 58 20 -5 20 -2 15 57 -4 34 -10 73 -13 86 -6 21 -5 22 14 12 11 -6 23
-11 26 -11 13 0 5 38 -19 87 -13 29 -21 54 -17 57 4 2 50 13 102 25 212 47
467 83 710 101 171 12 584 4 758 -15z m-947 -739 c128 -21 205 -62 240 -129
10 -17 9 -17 -20 -3 -94 49 -194 -25 -222 -166 -21 -106 32 -243 107 -274 42
-17 37 -27 -32 -75 -148 -102 -427 -108 -552 -12 -113 86 -172 223 -172 398 1
149 64 229 210 261 76 17 336 17 441 0z m1454 -14 c62 -29 112 -75 136 -127
37 -79 16 -274 -41 -386 -35 -68 -104 -133 -173 -165 -52 -23 -79 -29 -163
-32 -55 -2 -125 1 -155 7 -71 15 -165 60 -212 101 l-37 32 39 43 c122 133 73
402 -78 422 -22 3 -41 9 -41 13 0 13 62 62 97 77 74 31 186 42 383 40 178 -2
199 -5 245 -25z m-2259 -118 c38 -26 53 -64 69 -181 30 -210 55 -273 144 -356
104 -97 239 -134 425 -116 170 16 284 66 370 161 65 72 95 125 151 274 62 163
64 166 128 162 l51 -3 28 -55 c21 -41 28 -70 28 -115 0 -76 34 -152 85 -191
21 -16 51 -44 69 -62 104 -112 271 -172 480 -172 206 0 329 68 401 223 32 69
49 134 75 294 11 69 41 132 66 140 30 10 28 -201 -2 -336 -68 -303 -390 -478
-970 -527 l-81 -6 -24 48 -24 49 -165 3 c-91 1 -175 0 -186 -3 -14 -3 -29 -23
-43 -55 -21 -48 -23 -50 -54 -46 -18 3 -68 8 -112 11 -44 4 -125 13 -180 21
-482 74 -669 190 -755 469 -34 111 -40 385 -9 385 5 0 21 -7 35 -16z m1054
-82 c20 -16 22 -24 16 -64 -5 -35 -12 -48 -32 -57 -35 -16 -72 -4 -89 30 -21
39 -19 56 10 84 29 30 64 32 95 7z m595 -7 c63 -63 -18 -160 -88 -105 -37 29
-37 80 -1 109 35 27 59 26 89 -4z m-600 -165 c-5 -16 -10 -19 -18 -11 -7 7 -6
15 3 26 17 20 24 13 15 -15z m621 -15 c-3 -9 -14 -15 -23 -13 -22 4 -30 38
-11 49 18 11 43 -15 34 -36z m-636 -841 c0 -8 -4 -12 -10 -9 -5 3 -10 10 -10
16 0 5 5 9 10 9 6 0 10 -7 10 -16z m484 -22 c-22 -5 -31 7 -14 18 9 6 17 5 22
-3 4 -7 1 -13 -8 -15z m-493 -26 c5 3 9 -4 9 -16 0 -14 -4 -19 -12 -14 -10 6
-10 4 0 -7 19 -20 15 -49 -5 -43 -17 5 -17 5 0 -9 9 -8 17 -20 17 -28 -1 -10
-4 -9 -14 4 -7 9 -23 17 -35 17 -17 0 -21 6 -21 34 0 18 7 51 16 72 l17 39 9
-28 c5 -15 14 -25 19 -21z m529 -14 c0 -15 -5 -33 -12 -40 -17 -17 -2 -28 17
-12 12 10 15 10 15 -1 -1 -20 -80 -73 -80 -54 0 8 7 18 16 23 14 8 14 10 0 22
-13 10 -14 15 -4 28 10 12 10 16 1 19 -20 7 -15 23 7 23 11 0 20 5 20 10 0 6
5 10 10 10 6 0 10 -13 10 -28z"/>
<path d="M2177 1854 c-85 -20 -161 -60 -201 -104 -20 -22 -36 -44 -36 -49 0
-17 56 -22 121 -11 35 6 69 11 74 11 89 -7 292 -8 315 -1 20 6 41 5 58 -1 32
-12 157 -17 168 -6 14 14 -52 81 -113 114 -107 59 -261 78 -386 47z"/>
<path d="M2017 1184 c-8 -8 1 -24 14 -24 5 0 9 7 9 15 0 15 -12 20 -23 9z"/>
</g>
</svg>
